<?xml version="1.0" standalone="no"?>
<!DOCTYPE svg PUBLIC "-//W3C//DTD SVG 20010904//EN"
 "http://www.w3.org/TR/2001/REC-SVG-20010904/DTD/svg10.dtd">
<svg version="1.0" xmlns="http://www.w3.org/2000/svg"
 width="238.000000pt" height="238.000000pt" viewBox="0 0 238.000000 238.000000"
 preserveAspectRatio="xMidYMid meet">
<metadata>
Created by potrace 1.11, written by Peter Selinger 2001-2013
</metadata>
<g transform="translate(0.000000,238.000000) scale(0.100000,-0.100000)"
fill="#000000" stroke="none">
<path d="M1080 2071 c-5 -11 -10 -27 -10 -36 0 -25 20 -7 21 18 l0 22 9 -21
c8 -21 30 -42 30 -29 0 9 -30 65 -35 65 -2 0 -9 -9 -15 -19z"/>
<path d="M1170 2061 c0 -34 13 -46 38 -36 15 6 14 8 -6 16 -18 7 -22 14 -17
29 4 11 2 20 -4 20 -6 0 -11 -13 -11 -29z"/>
<path d="M1267 2083 c-4 -3 -7 -19 -7 -34 0 -28 18 -42 39 -29 9 5 7 9 -7 12
-15 4 -19 12 -15 32 5 26 2 32 -10 19z"/>
<path d="M1356 2060 c4 -14 7 -31 7 -37 0 -7 4 -13 9 -13 4 0 8 5 8 12 0 6 7
20 17 30 9 10 11 18 5 18 -6 0 -14 -5 -17 -11 -5 -6 -12 -4 -21 8 -14 17 -15
16 -8 -7z"/>
<path d="M971 2061 c-17 -11 -6 -47 16 -55 9 -4 23 0 32 9 15 15 14 15 -1 9
-10 -3 -26 -3 -35 1 -16 6 -16 8 6 26 23 19 9 27 -18 10z"/>
<path d="M905 2025 c4 -16 11 -34 16 -39 17 -18 15 -1 -3 34 -19 35 -19 35
-13 5z"/>
<path d="M1499 2009 c-9 -18 -8 -25 9 -41 18 -19 20 -19 37 -2 14 14 15 19 4
23 -7 2 -15 -1 -17 -8 -5 -15 -22 -4 -22 16 0 11 7 14 25 11 28 -6 34 6 9 16
-25 10 -33 7 -45 -15z"/>
<path d="M847 2014 c-3 -3 -3 -13 0 -21 5 -13 3 -13 -16 -3 -29 15 -35 9 -20
-24 13 -28 33 -37 22 -10 -5 14 -2 16 20 10 25 -6 26 -5 16 24 -12 32 -13 33
-22 24z"/>
<path d="M1594 1959 c-14 -28 -14 -31 -1 -26 9 3 18 -1 21 -10 6 -14 8 -14 21
3 20 26 18 41 -5 54 -16 9 -22 6 -36 -21z m41 1 c3 -5 2 -10 -4 -10 -5 0 -13
5 -16 10 -3 6 -2 10 4 10 5 0 13 -4 16 -10z"/>
<path d="M727 1953 c-7 -11 4 -63 13 -63 4 0 11 7 14 16 4 9 13 14 21 10 26
-10 16 9 -14 27 -16 10 -32 14 -34 10z"/>
<path d="M1088 1918 c-2 -4 -22 -9 -45 -10 -24 -2 -43 -7 -43 -11 0 -5 -3 -6
-8 -3 -4 2 -25 -4 -47 -14 -22 -11 -44 -19 -48 -20 -4 0 -36 -19 -70 -41 -138
-92 -231 -229 -231 -340 0 -64 10 -84 28 -55 19 33 86 96 101 96 8 0 15 5 15
10 0 6 3 9 8 8 4 -1 20 4 35 10 16 7 32 10 37 7 5 -3 10 0 12 5 2 6 12 13 23
15 11 2 21 4 23 5 1 2 5 3 10 5 4 1 14 4 22 8 81 33 160 42 355 41 130 -1 184
-6 229 -19 58 -17 148 -58 175 -79 7 -6 19 -11 25 -11 22 -1 95 -45 114 -70
11 -14 23 -25 27 -25 22 0 -41 166 -81 211 -8 9 -13 18 -12 20 2 2 2 4 1 3 -2
0 -35 30 -75 68 -109 101 -146 128 -201 142 -15 3 -26 10 -23 14 2 4 -6 8 -17
8 -12 1 -42 7 -67 14 -50 13 -268 20 -272 8z"/>
<path d="M1687 1918 c-23 -13 -21 -41 4 -56 18 -11 24 -11 40 4 31 28 -7 73
-44 52z m38 -28 c0 -8 -8 -16 -17 -18 -13 -2 -18 3 -18 18 0 15 5 20 18 18 9
-2 17 -10 17 -18z"/>
<path d="M630 1881 c-19 -36 34 -68 60 -36 16 20 -6 53 -24 35 -8 -8 -7 -13 4
-20 13 -8 13 -10 -2 -10 -23 0 -32 18 -18 35 8 10 9 15 2 15 -6 0 -16 -9 -22
-19z"/>
<path d="M1776 1835 c-8 -32 -5 -41 12 -37 10 2 12 -3 7 -17 -8 -25 -3 -26 35
-6 35 18 40 29 9 20 -18 -6 -20 -4 -14 15 6 19 4 21 -16 15 -17 -6 -21 -4 -16
9 3 8 2 18 -2 21 -5 2 -12 -6 -15 -20z"/>
<path d="M563 1823 c-21 -8 -15 -40 11 -56 23 -15 24 -15 19 4 -4 15 -2 18 11
13 21 -8 20 1 -1 26 -18 21 -20 22 -40 13z m19 -25 c-6 -6 -15 -8 -19 -4 -4 4
-1 11 7 16 19 12 27 3 12 -12z"/>
<path d="M492 1738 c-18 -18 -14 -46 9 -58 26 -14 49 3 49 35 0 32 -35 46 -58
23z m46 -25 c5 -18 -28 -29 -38 -12 -5 7 -6 17 -3 22 7 12 35 5 41 -10z"/>
<path d="M1855 1729 c-30 -21 -30 -21 -4 -15 24 5 26 3 21 -20 -4 -24 -3 -25
16 -15 28 15 42 37 18 28 -15 -6 -17 -3 -12 18 8 30 0 31 -39 4z"/>
<path d="M1160 1623 c0 -4 -19 -8 -42 -8 -79 -1 -142 -17 -323 -79 -5 -2 -12
-3 -15 -2 -3 0 -20 -9 -37 -22 -18 -13 -33 -20 -33 -16 0 4 -16 -10 -35 -32
-19 -21 -35 -45 -35 -51 0 -7 -4 -13 -9 -13 -5 0 -7 -8 -4 -19 8 -29 49 -45
148 -55 71 -7 125 -18 131 -27 2 -4 11 -6 18 -3 8 3 16 2 19 -3 3 -4 32 -6 66
-5 l60 4 8 36 c8 42 5 72 -8 89 -12 13 28 24 87 23 21 0 66 1 99 3 69 3 148
-10 140 -24 -3 -5 -8 -28 -11 -52 -11 -89 -16 -82 56 -79 36 1 76 5 88 7 18 4
22 2 16 -7 -6 -10 -5 -10 7 -2 12 10 88 25 142 27 9 1 17 5 17 9 0 4 8 8 18 8
9 0 34 11 54 25 35 23 36 27 26 55 -10 30 -64 80 -86 80 -7 0 -12 4 -12 8 0 5
-6 9 -12 9 -23 0 -147 70 -140 78 4 5 2 5 -4 2 -7 -4 -31 0 -55 9 -54 19 -283
34 -297 19 -3 -2 -13 0 -23 6 -11 5 -19 6 -19 2z"/>
<path d="M1099 1420 c-1 -3 -3 -30 -4 -60 -1 -30 -5 -74 -9 -97 l-8 -42 -61
-4 c-52 -3 -47 -4 28 -5 235 -6 345 -6 345 0 0 3 -8 8 -17 10 -14 2 -18 15
-19 55 0 29 2 51 5 49 3 -2 7 20 7 49 l2 52 -134 -1 c-74 0 -135 -3 -135 -6z"/>
<path d="M630 1212 c0 -5 14 -7 30 -4 17 2 30 6 30 8 0 2 -13 4 -30 4 -16 0
-30 -4 -30 -8z"/>
<path d="M758 1213 c18 -2 45 -2 60 0 15 2 0 4 -33 4 -33 0 -45 -2 -27 -4z"/>
<path d="M850 1216 c0 -2 14 -6 30 -8 17 -3 30 -1 30 4 0 4 -13 8 -30 8 -16 0
-30 -2 -30 -4z"/>
<path d="M920 1216 c0 -2 7 -6 15 -10 8 -3 15 -1 15 4 0 6 -7 10 -15 10 -8 0
-15 -2 -15 -4z"/>
<path d="M1400 1216 c0 -2 7 -6 15 -10 8 -3 15 -1 15 4 0 6 -7 10 -15 10 -8 0
-15 -2 -15 -4z"/>
<path d="M1453 1213 c9 -2 25 -2 35 0 9 3 1 5 -18 5 -19 0 -27 -2 -17 -5z"/>
<path d="M1510 1211 c0 -5 9 -7 20 -4 11 3 20 7 20 9 0 2 -9 4 -20 4 -11 0
-20 -4 -20 -9z"/>
<path d="M1590 1211 c0 -4 11 -6 25 -3 14 2 25 6 25 8 0 2 -11 4 -25 4 -14 0
-25 -4 -25 -9z"/>
<path d="M1658 1213 c7 -3 16 -2 19 1 4 3 -2 6 -13 5 -11 0 -14 -3 -6 -6z"/>
<path d="M1698 1213 c6 -2 18 -2 25 0 6 3 1 5 -13 5 -14 0 -19 -2 -12 -5z"/>
<path d="M156 1195 c-3 -9 3 -19 14 -25 17 -9 20 -7 20 11 0 21 1 22 20 4 18
-16 20 -31 20 -141 0 -100 -3 -126 -16 -139 -20 -19 -43 -16 -58 8 -9 15 -7
22 13 38 16 13 21 23 14 30 -14 14 -62 -9 -65 -30 -3 -34 3 -55 20 -67 52 -40
143 12 136 77 -2 18 2 39 9 47 7 10 8 13 1 9 -8 -5 -11 16 -10 71 1 76 1 77
-31 100 -37 25 -78 29 -87 7z"/>
<path d="M1986 1194 c-8 -22 -8 -22 13 -33 16 -9 18 -8 14 8 -6 23 21 35 37
16 6 -7 10 -17 9 -21 -1 -5 -1 -66 0 -136 1 -101 4 -126 14 -122 10 3 13 28
13 89 -1 47 2 85 6 85 10 0 29 -38 43 -84 l11 -38 32 63 31 64 0 -90 1 -91 31
-18 c22 -13 29 -14 23 -5 -5 8 -9 84 -9 169 -1 150 -1 155 -22 156 -17 1 -22
-6 -26 -35 -2 -20 -14 -51 -25 -70 l-20 -33 -27 46 c-14 25 -25 55 -23 66 3
20 -3 22 -58 26 -50 3 -63 1 -68 -12z"/>
<path d="M417 1180 c7 -8 243 -7 243 0 0 4 -56 7 -124 6 -68 -1 -122 -3 -119
-6z"/>
<path d="M670 1180 c0 -5 7 -10 15 -10 8 0 15 5 15 10 0 6 -7 10 -15 10 -8 0
-15 -4 -15 -10z"/>
<path d="M710 1182 c0 -4 9 -8 20 -9 11 -1 20 2 20 8 0 5 -9 9 -20 9 -11 0
-20 -4 -20 -8z"/>
<path d="M760 1180 c0 -5 5 -10 10 -10 6 0 10 5 10 10 0 6 -4 10 -10 10 -5 0
-10 -4 -10 -10z"/>
<path d="M790 1180 c0 -5 5 -10 10 -10 6 0 10 5 10 10 0 6 -4 10 -10 10 -5 0
-10 -4 -10 -10z"/>
<path d="M820 1180 c0 -3 99 -6 220 -7 121 0 220 3 220 7 0 3 -99 6 -220 6
-121 0 -220 -3 -220 -6z"/>
<path d="M1270 1178 c0 -4 20 -7 45 -6 24 0 42 4 40 9 -7 10 -85 7 -85 -3z"/>
<path d="M1370 1179 c0 -4 29 -6 65 -6 36 0 65 4 65 7 0 4 -29 7 -65 6 -36 0
-65 -3 -65 -7z"/>
<path d="M1510 1180 c0 -5 5 -10 10 -10 6 0 10 5 10 10 0 6 -4 10 -10 10 -5 0
-10 -4 -10 -10z"/>
<path d="M1540 1180 c0 -4 27 -6 60 -6 33 0 60 3 60 7 0 4 -27 7 -60 7 -33 -1
-60 -4 -60 -8z"/>
<path d="M1670 1182 c0 -4 9 -8 20 -9 11 -1 20 2 20 8 0 5 -9 9 -20 9 -11 0
-20 -4 -20 -8z"/>
<path d="M1720 1180 c0 -5 5 -10 10 -10 6 0 10 5 10 10 0 6 -4 10 -10 10 -5 0
-10 -4 -10 -10z"/>
<path d="M1750 1179 c0 -5 11 -9 25 -9 14 0 25 4 25 9 0 5 -11 9 -25 9 -14 0
-25 -4 -25 -9z"/>
<path d="M1810 1180 c0 -8 106 -7 113 0 3 3 -21 5 -54 6 -32 0 -59 -3 -59 -6z"/>
<path d="M351 1099 c-47 -39 -35 -136 20 -159 33 -14 51 -5 74 40 38 74 -35
167 -94 119z m58 -31 c11 -30 5 -86 -11 -105 -10 -13 -14 -13 -25 3 -14 19
-17 81 -7 108 9 23 33 19 43 -6z"/>
<path d="M505 1110 c-1 -3 -3 -44 -3 -92 l-1 -88 54 1 c33 1 59 7 66 16 16 19
5 27 -19 14 -31 -17 -50 -13 -57 10 -5 13 -1 27 8 37 14 13 18 13 32 2 15 -12
17 -11 13 10 -2 20 -9 25 -28 23 -20 -1 -26 4 -28 22 -2 29 24 37 55 17 23
-14 37 -4 24 17 -8 12 -109 22 -116 11z"/>
<path d="M780 1111 c-12 -5 -15 -25 -15 -94 0 -74 2 -87 16 -87 13 0 16 10 15
55 -1 30 2 55 6 55 4 0 16 -17 27 -37 l20 -38 11 33 c14 38 30 42 30 7 0 -14
-6 -25 -12 -25 -10 0 -10 -2 0 -9 7 -4 12 -14 10 -22 -2 -8 7 -15 20 -17 21
-3 22 -1 22 87 0 49 -4 93 -10 96 -11 7 -60 -38 -60 -55 0 -21 -19 -9 -32 20
-14 33 -26 40 -48 31z"/>
<path d="M987 1112 c-9 -2 -14 -8 -11 -14 4 -6 8 -39 8 -74 1 -50 6 -67 21
-79 22 -17 85 -11 97 8 8 13 9 18 12 92 1 28 4 55 8 60 4 6 -2 11 -13 11 -16
0 -19 -8 -20 -56 -2 -86 -3 -92 -22 -104 -29 -18 -43 12 -42 88 1 66 -4 76
-38 68z"/>
<path d="M1185 1108 c-44 -25 -41 -45 16 -82 55 -37 52 -95 -3 -64 -20 10 -21
13 -5 16 24 5 22 32 -3 32 -29 0 -44 -34 -24 -54 30 -30 48 -35 81 -21 36 15
53 56 34 79 -7 8 -25 19 -41 26 -29 12 -45 35 -35 50 9 15 40 4 51 -18 7 -15
14 -18 21 -11 15 15 4 49 -16 49 -9 0 -25 2 -36 5 -11 3 -29 0 -40 -7z"/>
<path d="M1341 1111 c-5 -3 -9 -40 -8 -82 0 -41 -3 -80 -6 -86 -5 -8 3 -11 23
-11 26 1 29 4 25 25 -6 35 3 52 26 46 14 -4 19 -14 19 -39 0 -29 3 -34 23 -32
21 2 22 5 20 92 -2 83 -3 90 -23 91 -19 2 -20 -3 -17 -47 2 -26 1 -48 -2 -48
-39 1 -49 13 -46 54 4 42 -7 53 -34 37z"/>
<path d="M1530 1112 c-12 -2 -14 -19 -12 -91 3 -83 5 -88 25 -87 19 1 22 6 20
39 -2 45 4 47 19 7 11 -32 41 -55 58 -45 6 3 10 18 10 32 0 21 -2 23 -15 13
-22 -19 -32 16 -11 39 24 26 27 57 8 74 -17 14 -73 25 -102 19z m75 -61 c-9
-30 -45 -28 -45 2 0 13 5 28 12 35 18 18 42 -9 33 -37z"/>
<path d="M1902 1101 c-70 -53 -21 -193 55 -158 29 13 55 70 47 102 -6 24 -39
58 -65 67 -8 3 -25 -1 -37 -11z m54 -33 c19 -58 -8 -137 -35 -105 -13 16 -18
98 -7 116 12 18 34 12 42 -11z"/>
<path d="M1717 1092 c-24 -26 -32 -77 -18 -111 15 -35 54 -55 80 -41 10 5 22
6 26 2 3 -4 5 -2 4 3 -2 6 3 21 10 34 16 29 8 86 -15 112 -22 24 -66 24 -87 1z
m67 -67 c1 -82 -44 -87 -50 -6 -2 27 3 46 13 57 23 22 37 3 37 -51z"/>
<path d="M1116 882 c-4 -4 -162 -7 -351 -7 -189 0 -347 -4 -351 -8 -4 -4 10
-7 32 -7 109 -1 1340 -1 1407 -1 42 1 77 4 77 9 0 4 -64 7 -142 6 -88 0 -149
4 -157 10 -11 8 -13 8 -8 0 7 -12 -266 -14 -279 -2 -3 4 -14 4 -23 -1 -21 -10
-112 -8 -130 3 -9 6 -12 5 -7 -2 8 -13 -33 -13 -50 0 -6 4 -14 4 -18 0z"/>
<path d="M1087 842 c-38 -2 -57 -7 -55 -15 4 -22 -13 -138 -20 -133 -4 2 -6
-31 -4 -74 3 -75 5 -79 32 -90 15 -6 34 -12 41 -13 8 -2 20 -6 27 -10 42 -27
155 -25 216 2 24 12 48 26 51 32 4 6 13 8 21 5 8 -3 11 0 8 8 -3 8 -1 17 5 20
6 4 8 12 6 19 -2 7 -6 42 -9 80 -3 37 -8 72 -12 78 -3 6 0 15 7 20 10 6 11 9
2 9 -7 0 -13 11 -13 25 l0 25 173 2 c140 3 118 4 -123 8 -162 3 -321 4 -353 2z"/>
<path d="M718 833 c56 -2 148 -2 205 0 56 1 10 3 -103 3 -113 0 -159 -2 -102
-3z"/>
<path d="M1745 532 c6 -21 4 -23 -14 -17 -28 9 -28 -16 0 -41 22 -19 22 -19
14 5 -7 22 -5 23 19 17 33 -8 33 4 0 35 l-26 24 7 -23z"/>
<path d="M626 519 c-12 -18 -13 -24 -1 -35 18 -19 29 -18 21 2 -4 9 -2 13 5 8
8 -4 9 1 4 17 -6 20 -5 22 6 12 7 -7 18 -13 24 -13 11 1 -24 30 -36 30 -4 0
-15 -10 -23 -21z"/>
<path d="M709 467 c-12 -27 -7 -57 10 -57 14 0 41 29 41 43 0 7 -7 4 -14 -5
-12 -17 -36 -25 -36 -12 0 3 5 14 11 26 6 11 8 22 5 25 -3 3 -11 -6 -17 -20z"/>
<path d="M1635 466 c-17 -12 -18 -18 -7 -40 14 -31 22 -32 51 -8 20 16 21 18
6 40 -19 26 -25 27 -50 8z m39 -14 c2 -4 1 -14 -4 -22 -7 -11 -12 -12 -21 -3
-6 6 -8 16 -5 22 8 13 23 14 30 3z"/>
<path d="M802 421 c-23 -14 -11 -56 16 -56 23 0 32 17 11 24 -7 2 -9 -1 -5 -8
4 -6 3 -11 -2 -11 -9 0 -22 23 -22 37 0 3 11 3 25 0 16 -3 24 0 22 7 -5 14
-28 18 -45 7z"/>
<path d="M1547 416 c-21 -16 -22 -39 -1 -57 11 -9 20 -10 32 -3 23 15 26 33 7
40 -21 9 -33 -5 -15 -16 13 -8 12 -10 -2 -10 -23 0 -23 26 -2 38 9 5 13 12 8
15 -5 3 -17 0 -27 -7z"/>
<path d="M887 363 c-5 -26 20 -60 33 -46 3 3 -1 8 -7 10 -7 3 -13 9 -13 15 0
6 7 8 15 4 8 -3 15 -1 15 4 0 6 -4 10 -10 10 -5 0 -10 4 -10 10 0 5 7 6 17 3
11 -4 14 -3 9 5 -14 23 -43 13 -49 -15z"/>
<path d="M1456 377 c-13 -9 -16 -20 -11 -40 8 -29 10 -30 40 -17 19 8 18 9 -4
9 -24 1 -24 1 -5 16 19 14 19 14 -1 15 -16 0 -17 2 -5 10 8 5 12 11 9 14 -3 3
-13 0 -23 -7z"/>
<path d="M978 335 c-6 -27 7 -44 16 -23 3 9 8 8 16 -5 15 -23 30 -12 29 21 0
15 -3 21 -6 15 -7 -18 -23 -16 -23 2 0 25 -27 17 -32 -10z"/>
<path d="M1353 352 c-6 -4 -9 -19 -6 -35 5 -23 8 -26 21 -15 12 10 16 10 19 0
3 -6 9 -10 14 -6 5 3 6 11 2 17 -4 7 -8 19 -8 27 0 17 -24 24 -42 12z m28 -25
c-13 -13 -26 -3 -16 12 3 6 11 8 17 5 6 -4 6 -10 -1 -17z"/>
<path d="M1087 335 c-8 -25 -1 -60 13 -61 28 -1 35 10 10 17 -24 7 -24 7 -2 8
12 1 22 6 22 12 0 5 -4 8 -9 4 -5 -3 -12 -1 -16 5 -3 5 1 10 9 10 9 0 16 4 16
8 0 12 -39 9 -43 -3z"/>
<path d="M1245 330 c-20 -22 -19 -37 3 -48 35 -19 66 8 50 43 -12 26 -32 28
-53 5z m43 -23 c2 -12 -3 -17 -17 -17 -12 0 -21 6 -21 13 0 31 32 34 38 4z"/>
</g>
</svg>
